<?xml version="1.0" encoding="utf-8"?>
<!-- Generator: Adobe Illustrator 22.0.1, SVG Export Plug-In . SVG Version: 6.00 Build 0)  -->
<svg version="1.1" id="Layer_1" xmlns="http://www.w3.org/2000/svg" xmlns:xlink="http://www.w3.org/1999/xlink" x="0px" y="0px"
	 viewBox="0 0 40 40" style="enable-background:new 0 0 40 40;" xml:space="preserve">
<style type="text/css">
	.st0{fill:#FFFFFF;}
</style>
<g>
	<path class="st0" d="M31,40H9c-4.9,0-9-4-9-9L0,9c0-4.9,4.1-9,9-9l22,0c5,0,9,4.1,9,9v22C40,36,36,40,31,40z"/>
	<path d="M16.1,18.7h5.3v-5.8c0,0-0.2-6.5,6-6.5h6.3v5.5h-3.8c0,0-2.2-0.1-2.2,2.2v4.6h6l-1,6h-5V40h-6.5V24.6h-5.1V18.7z"/>
</g>
</svg>
