<?xml version="1.0" encoding="utf-8"?>
<!-- Generator: Adobe Illustrator 22.0.1, SVG Export Plug-In . SVG Version: 6.00 Build 0)  -->
<svg version="1.1" id="Layer_1" xmlns="http://www.w3.org/2000/svg" xmlns:xlink="http://www.w3.org/1999/xlink" x="0px" y="0px"
	 viewBox="0 0 40 40" style="enable-background:new 0 0 40 40;" xml:space="preserve">
<style type="text/css">
	.st0{fill:#FFFFFF;}
</style>
<g>
	<path class="st0" d="M31,40H9c-4.9,0-9-4-9-9L0,9c0-4.9,4.1-9,9-9l22,0c5,0,9,4.1,9,9v22C40,36,36,40,31,40z"/>
	<g>
		<path d="M26.7,5.3H13.3c-4.4,0-8,3.6-8,8v13.3c0,4.4,3.6,8,8,8h13.3c4.4,0,8-3.6,8-8V13.3C34.7,8.9,31.1,5.3,26.7,5.3z M32.1,27.1
			c0,2.8-2.3,5-5,5H12.9c-2.8,0-5-2.3-5-5V12.9c0-2.8,2.3-5,5-5h14.1c2.8,0,5,2.3,5,5V27.1z"/>
		<path d="M20,12.5c-4.1,0-7.5,3.4-7.5,7.5s3.4,7.5,7.5,7.5s7.5-3.4,7.5-7.5S24.1,12.5,20,12.5z M20,24.8c-2.7,0-4.8-2.2-4.8-4.8
			s2.2-4.8,4.8-4.8s4.8,2.2,4.8,4.8S22.7,24.8,20,24.8z"/>
		<circle cx="27.9" cy="12.1" r="1.8"/>
	</g>
</g>
</svg>
