<?xml version="1.0" encoding="utf-8"?>
<!-- Generator: Adobe Illustrator 22.0.1, SVG Export Plug-In . SVG Version: 6.00 Build 0)  -->
<svg version="1.1" id="Layer_1" xmlns="http://www.w3.org/2000/svg" xmlns:xlink="http://www.w3.org/1999/xlink" x="0px" y="0px"
	 viewBox="0 0 40 40" style="enable-background:new 0 0 40 40;" xml:space="preserve">
<style type="text/css">
	.st0{fill:#FFFFFF;}
</style>
<path class="st0" d="M31,40H9c-4.9,0-9-4-9-9L0,9c0-4.9,4.1-9,9-9l22,0c5,0,9,4.1,9,9v22C40,36,36,40,31,40z"/>
<path d="M33.3,11.7c0,0-2.2,0.9-2.9,0.8c0,0,1.8-1.5,2.2-3c0,0-1.5,1-3.6,1.3c-1-1-2.4-1.7-4-1.7c-3,0-5.4,2.3-5.4,5.2
	c0,0.5,0.1,1,0.2,1.4c0,0,0,0-0.1,0c-1.4-0.2-5.8-1-7.3-2.1c-1.8-1.3-3.6-2.9-4-3.5c0,0-2.6,3,1.4,7.3c0,0-1.8-0.1-2.3-0.8
	c0,0-0.3,4,4.3,5.4c0,0-0.9,0.4-2.2,0.2c0,0,0.7,3.3,4.9,3.7c0,0-4.4,3.5-7.9,2.3c0,0,6.1,4.1,12.7,1.8c0,0,5-1.3,7.5-4.9
	c0,0,4.3-5,3.8-10.9C30.7,14.4,33.2,12.3,33.3,11.7z"/>
</svg>
