<?xml version="1.0" encoding="utf-8"?>
<!-- Generator: Adobe Illustrator 22.0.1, SVG Export Plug-In . SVG Version: 6.00 Build 0)  -->
<svg version="1.1" id="Layer_1" xmlns="http://www.w3.org/2000/svg" xmlns:xlink="http://www.w3.org/1999/xlink" x="0px" y="0px"
	 viewBox="0 0 40 40" style="enable-background:new 0 0 40 40;" xml:space="preserve">
<style type="text/css">
	.st0{fill:#FFFFFF;}
</style>
<path class="st0" d="M31,40H9c-4.9,0-9-4-9-9L0,9c0-4.9,4.1-9,9-9l22,0c5,0,9,4.1,9,9v22C40,36,36,40,31,40z"/>
<g>
	<path d="M29,29.2H11c-2.2,0-4-1.8-4-4V14.8c0-2.2,1.8-4,4-4h18c2.2,0,4,1.8,4,4v10.4C33,27.4,31.2,29.2,29,29.2z"/>
	<polygon class="st0" points="23.4,20 16.6,16.3 16.6,23.7 	"/>
</g>
</svg>
